<?xml version="1.0" standalone="no"?><!DOCTYPE svg PUBLIC "-//W3C//DTD SVG 1.1//EN" "http://www.w3.org/Graphics/SVG/1.1/DTD/svg11.dtd"><svg t="1748113930908" class="icon" viewBox="0 0 1024 1024" version="1.1" xmlns="http://www.w3.org/2000/svg" p-id="15764" xmlns:xlink="http://www.w3.org/1999/xlink" width="200" height="200"><path d="M512 938.666667c-59.733333 0-123.733333-2.133333-185.6-4.266667l-32-2.133333c-108.8-6.4-194.133333-91.733333-200.533333-200.533334C87.466667 648.533333 85.333333 576 85.333333 512c0-59.733333 2.133333-125.866667 6.4-202.666667v-17.066666c6.4-108.8 91.733333-194.133333 200.533334-200.533334 76.8-4.266667 149.333333-6.4 219.733333-6.4 59.733333 0 123.733333 2.133333 185.6 4.266667l32 2.133333c108.8 6.4 194.133333 91.733333 200.533333 200.533334 6.4 83.2 8.533333 155.733333 8.533334 219.733333 0 59.733333-2.133333 125.866667-6.4 202.666667v17.066666c-6.4 108.8-91.733333 194.133333-200.533334 200.533334-76.8 4.266667-149.333333 6.4-219.733333 6.4z m0-224c17.066667 0 32-14.933333 32-32V430.933333l96 96c12.8 12.8 32 12.8 44.8 0 12.8-12.8 12.8-32 0-44.8l-153.6-153.6c-6.4-6.4-8.533333-8.533333-12.8-8.533333-4.266667-2.133333-8.533333-2.133333-10.666667 0-4.266667 0-6.4 2.133333-10.666666 6.4l-2.133334 2.133333-153.6 153.6c-12.8 12.8-12.8 32 0 44.8 12.8 12.8 32 12.8 44.8 0l96-96V682.666667c-2.133333 17.066667 12.8 32 29.866667 32z" fill="#e6e6e6" p-id="15765"></path></svg>